HIERARCHY
ROOT Hips
{
	OFFSET -3.958830 18.904000 13.208200
	CHANNELS 6 Xposition Yposition Zposition Zrotation Yrotation Xrotation 
	JOINT LHipJoint
	{
		OFFSET 0.000000 0.000000 0.000000
		CHANNELS 3 Zrotation Yrotation Xrotation
		JOINT LeftUpLeg
		{
			OFFSET 1.800000 -1.400000 0.085000
			CHANNELS 3 Zrotation Yrotation Xrotation
			JOINT LeftLeg
			{
				OFFSET 2.215000 -6.000000 0.000000
				CHANNELS 3 Zrotation Yrotation Xrotation
				JOINT LeftFoot
				{
					OFFSET 2.500000 -6.900000 0.000000
					CHANNELS 3 Zrotation Yrotation Xrotation
					JOINT LeftToeBase
					{
						OFFSET 0.200000 -0.500000 1.950000
						CHANNELS 3 Zrotation Yrotation Xrotation
						End Site
						{
							OFFSET 0.000000 0.000000 0.000000
						}
					}
				}
			}
		}
	}
	JOINT RHipJoint
	{
		OFFSET 0.000000 0.000000 0.000000
		CHANNELS 3 Zrotation Yrotation Xrotation
		JOINT RightUpLeg
		{
			OFFSET -1.800000 -1.400000 0.085000
			CHANNELS 3 Zrotation Yrotation Xrotation
			JOINT RightLeg
			{
				OFFSET -2.215000 -6.000000 0.000000
				CHANNELS 3 Zrotation Yrotation Xrotation
				JOINT RightFoot
				{
					OFFSET -2.500000 -6.900000 0.000000
					CHANNELS 3 Zrotation Yrotation Xrotation
					JOINT RightToeBase
					{
						OFFSET -0.200000 -0.500000 1.950000
						CHANNELS 3 Zrotation Yrotation Xrotation
						End Site
						{
							OFFSET 0.000000 0.000000 0.000000
						}
					}
				}
			}
		}
	}
	JOINT LowerBack
	{
		OFFSET 0.000000 0.000000 0.000000
		CHANNELS 3 Zrotation Yrotation Xrotation
		JOINT Spine
		{
			OFFSET -0.087000 1.940000 -0.288900
			CHANNELS 3 Zrotation Yrotation Xrotation
			JOINT Spine1
			{
				OFFSET 0.000000 1.950000 0.060000
				CHANNELS 3 Zrotation Yrotation Xrotation
				JOINT Neck
				{
					OFFSET 0.000000 0.000000 0.000000
					CHANNELS 3 Zrotation Yrotation Xrotation
					JOINT Neck1
					{
						OFFSET 0.000000 1.600000 0.340000
						CHANNELS 3 Zrotation Yrotation Xrotation
						JOINT Head
						{
							OFFSET 0.000000 1.667000 -0.240000
							CHANNELS 3 Zrotation Yrotation Xrotation
							End Site
							{
								OFFSET 0.000000 0.000000 0.000000
							}
						}
					}
				}
				JOINT LeftShoulder
				{
					OFFSET 0.000000 0.000000 0.000000
					CHANNELS 3 Zrotation Yrotation Xrotation
					JOINT LeftArm
					{
						OFFSET 2.700000 1.550000 -0.730000
						CHANNELS 3 Zrotation Yrotation Xrotation
						JOINT LeftForeArm
						{
							OFFSET 5.450000 0.000000 0.000000
							CHANNELS 3 Zrotation Yrotation Xrotation
							JOINT LeftHand
							{
								OFFSET 3.450000 0.000000 0.000000
								CHANNELS 3 Zrotation Yrotation Xrotation
								JOINT LeftHandIndex1
								{
									OFFSET 0.750000 0.000000 0.000000
									CHANNELS 3 Zrotation Yrotation Xrotation
									End Site
									{
										OFFSET 0.000000 0.000000 0.000000
									}
								}
							}
						}
					}
				}
				JOINT RightShoulder
				{
					OFFSET 0.000000 0.000000 0.000000
					CHANNELS 3 Zrotation Yrotation Xrotation
					JOINT RightArm
					{
						OFFSET -2.700000 1.550000 -0.730000
						CHANNELS 3 Zrotation Yrotation Xrotation
						JOINT RightForeArm
						{
							OFFSET -5.450000 0.000000 0.000000
							CHANNELS 3 Zrotation Yrotation Xrotation
							JOINT RightHand
							{
								OFFSET -3.450000 0.000000 0.000000
								CHANNELS 3 Zrotation Yrotation Xrotation
								JOINT RightHandIndex1
								{
									OFFSET -0.750000 0.000000 0.000000
									CHANNELS 3 Zrotation Yrotation Xrotation
									End Site
									{
										OFFSET 0.000000 0.000000 0.000000
									}
								}
							}
						}
					}
				}
			}
		}
	}
}
MOTION
Frames: 12
Frame Time: 0.016667
1.582560 16.954630 -7.576930 -0.756339 18.840062 1.130988 -15.456482 13.405938 3.731252 8.893843 -0.286762 5.723821 -10.978839 4.948273 -3.801398 -0.886711 6.006534 2.558163 -0.306820 -0.649890 -0.163070 18.067577 -9.414825 3.324257 3.116459 2.641548 -27.665302 1.875139 -2.273933 -1.896422 -0.010782 -1.072114 3.953319 -0.112260 0.373350 -0.035390 -3.176190 -3.884393 -8.831508 4.962232 -6.840166 18.618658 -8.343415 -4.328443 9.908819 4.201350 -0.307032 -16.245452 -8.027944 2.154268 52.097839 -0.737600 -0.234640 -29.148780 -22.071800 -28.059883 9.360292 -47.631074 -23.001604 -6.714662 26.684290 -32.608795 -12.550407 -3.687401 2.022747 1.390730 -0.116030 0.114080 -0.124330 13.597900 27.017718 11.186495 67.551466 7.086860 -8.885030 5.018180 16.445066 -0.205310 1.864283 -0.310548 -0.929780 0.906140 0.769580 -0.447040 
1.581470 16.945330 -7.553400 -0.633730 18.884667 1.124417 -15.462373 13.409113 3.737621 8.943027 -0.294850 5.951084 -11.101209 4.986232 -3.771021 -0.884068 6.049430 2.545282 -0.311970 -0.655920 -0.163630 18.063553 -9.408151 3.313238 3.085425 2.562648 -27.625085 1.710323 -2.268195 -2.054450 -0.011913 -1.079263 3.951273 -0.112970 0.378860 -0.031710 -3.160521 -3.906707 -8.830559 4.762581 -6.905533 18.641420 -8.461947 -4.403200 9.978862 4.227612 -0.187311 -16.184040 -7.754558 2.104678 51.896325 -0.916730 -0.130010 -29.322280 -22.133961 -28.009040 9.316610 -47.138815 -23.085187 -6.687686 26.672779 -32.230145 -12.403824 -3.702772 2.015320 1.393670 -0.110270 0.114230 -0.126390 13.585308 26.832877 11.111186 67.646884 7.077768 -8.881581 5.221023 16.320017 -0.184210 1.862663 -0.304036 -0.934800 0.910730 0.774400 -0.448970 
1.581090 16.925920 -7.502660 -0.356534 18.962612 1.117322 -15.469924 13.414136 3.742922 8.947032 -0.282854 6.453513 -11.157994 5.051925 -3.688969 -0.878308 6.107889 2.524797 -0.319170 -0.660320 -0.163760 18.057606 -9.406931 3.300051 3.006930 2.398375 -27.588118 1.510516 -2.256192 -2.405802 -0.012460 -1.096667 3.945841 -0.111250 0.382430 -0.028260 -3.140512 -3.918336 -8.832331 4.357070 -6.997899 18.589918 -8.777931 -4.491007 10.215404 4.294889 0.163207 -16.193474 -7.005992 1.891954 51.753040 -1.328850 0.021230 -29.398610 -22.301297 -28.147711 9.368864 -45.941754 -23.298288 -6.677642 26.778594 -31.329626 -12.108468 -3.731914 2.006989 1.392530 -0.100040 0.113800 -0.132870 13.554401 26.690328 10.999657 67.893823 7.127264 -8.680945 5.702654 15.627199 -0.106205 1.866078 -0.297887 -0.939390 0.914080 0.780760 -0.452620 
1.581350 16.900880 -7.431030 -0.054407 19.081245 1.009915 -15.499730 13.455142 3.750353 9.083775 -0.279221 7.099781 -11.176066 5.163174 -3.492989 -0.878404 6.201443 2.489294 -0.325680 -0.669900 -0.162210 18.030764 -9.383752 3.269078 2.854461 2.227581 -27.384503 1.395724 -2.264947 -2.503463 -0.012140 -1.113688 3.938433 -0.108610 0.386790 -0.022940 -3.054922 -4.034297 -8.816754 3.657387 -7.068369 18.465988 -8.673011 -4.654747 10.639616 4.296884 0.365445 -16.172343 -6.659196 1.823729 51.559024 -1.641490 0.151140 -29.621350 -21.831808 -28.165204 9.305306 -45.393483 -23.896273 -6.239539 26.818126 -29.671125 -11.650745 -3.763997 2.001906 1.399170 -0.091130 0.112450 -0.141330 13.092016 26.433674 10.911397 68.168024 7.157673 -8.770399 6.050723 15.608209 -0.093717 1.856544 -0.289663 -0.949080 0.919780 0.792810 -0.460780 
1.587070 16.878590 -7.345790 0.062712 19.241704 0.713166 -15.509259 13.499013 3.755274 9.309701 -0.269543 7.892299 -11.081091 5.304493 -3.204023 -0.868185 6.286550 2.451962 -0.321570 -0.665440 -0.152010 18.018267 -9.388583 3.233870 2.698655 2.045261 -26.961167 1.447359 -2.300740 -2.360697 -0.021883 -1.134497 3.923798 -0.104810 0.375840 -0.014900 -3.026872 -4.106109 -8.802299 3.433410 -7.263740 18.386388 -8.886008 -4.848017 11.041786 4.383435 0.652163 -16.264433 -6.264179 1.710119 51.955835 -2.029060 0.245400 -29.869070 -21.734239 -28.234379 9.308639 -44.551265 -24.586005 -5.757468 26.733319 -27.592012 -11.018225 -3.789129 2.007111 1.406550 -0.092090 0.122620 -0.149180 12.778295 26.163658 10.871598 68.425318 7.005036 -9.018227 6.271900 15.939528 -0.115348 1.849687 -0.286061 -0.946500 0.915620 0.795350 -0.467370 
1.594540 16.860590 -7.251650 -0.130659 19.417270 0.287473 -15.495774 13.560076 3.738768 9.773638 -0.293667 8.509752 -10.858330 5.512013 -2.548888 -0.860386 6.360162 2.424787 -0.321660 -0.662860 -0.145420 18.022231 -9.421428 3.201691 2.897439 1.971474 -26.565618 1.257219 -2.356355 -1.640941 -0.022257 -1.133891 3.925235 -0.102880 0.372220 -0.010210 -3.062238 -4.147061 -8.777973 3.778888 -7.704810 18.357627 -9.413800 -5.182446 11.529934 4.572786 0.967216 -16.501325 -5.765159 1.603130 52.304764 -2.587950 0.374410 -29.783880 -21.893557 -28.511447 9.532450 -43.457835 -25.049593 -5.546329 27.021485 -25.404432 -10.483467 -3.822133 2.006982 1.406560 -0.085750 0.128390 -0.153500 12.438855 26.092830 10.853487 68.568843 7.001301 -9.264169 6.371274 16.494932 -0.159774 1.839899 -0.285723 -0.944920 0.915990 0.794960 -0.470620 
1.601550 16.852720 -7.147860 -0.343542 19.531108 -0.169381 -15.491018 13.636201 3.725247 10.256716 -0.322087 9.171540 -10.617111 5.736594 -1.860881 -0.854394 6.445896 2.394592 -0.331690 -0.668500 -0.144120 18.017658 -9.448106 3.162281 3.106922 1.913885 -26.015000 1.060414 -2.423458 -0.735035 -0.018145 -1.135768 3.929522 -0.102930 0.375210 -0.013740 -3.070116 -4.227066 -8.747791 3.969123 -8.162237 18.268103 -9.692287 -5.604140 12.002395 4.700901 1.229682 -16.710305 -5.378404 1.659213 52.898398 -3.016600 0.625940 -29.578310 -22.009252 -28.659797 9.742281 -42.716300 -25.286072 -5.364751 27.363726 -23.480841 -10.055496 -3.855384 1.992026 1.408090 -0.077430 0.129920 -0.161060 12.218635 25.897950 10.834949 68.577466 6.977684 -9.641423 5.954312 17.566311 -0.273673 1.823949 -0.274153 -0.952750 0.925760 0.800010 -0.474340 
1.607340 16.849670 -7.038620 -0.731989 19.414433 -0.633133 -15.493340 13.729792 3.709787 10.866824 -0.395007 9.704765 -10.347059 5.970625 -1.083361 -0.844753 6.532817 2.364981 -0.342540 -0.679990 -0.146200 18.006290 -9.454176 3.133118 3.511263 1.973118 -25.394939 0.862758 -2.494752 0.381492 -0.013250 -1.135837 3.935160 -0.108930 0.378720 -0.014940 -3.051514 -4.363216 -8.720291 4.195540 -8.618411 18.149694 -9.610784 -6.096814 12.370391 4.794948 1.258931 -16.954371 -5.493744 1.931103 53.479831 -3.442600 0.899570 -29.160380 -22.050057 -28.741548 9.963387 -42.582901 -25.122973 -5.302025 27.828871 -22.189030 -9.855706 -3.874451 1.988822 1.409170 -0.071080 0.129200 -0.165420 12.046240 25.817046 10.932225 68.347611 6.829535 -10.281551 5.122019 19.347302 -0.482174 1.801194 -0.268770 -0.957870 0.929590 0.805310 -0.476680 
1.607290 16.850290 -6.923430 -1.080869 18.925374 -1.101352 -15.504861 13.820885 3.706492 11.356401 -0.458682 10.438726 -10.018932 6.171961 -0.439259 -0.823785 6.615893 2.329761 -0.338820 -0.673820 -0.141120 17.988610 -9.451438 3.110867 4.144959 2.066133 -24.721725 0.509941 -2.564346 1.643948 -0.019472 -1.135692 3.933775 -0.110940 0.368170 -0.007850 -3.000387 -4.509231 -8.700907 4.144954 -8.863965 18.067269 -9.312927 -6.430471 12.641504 4.813045 1.266707 -17.206616 -5.707087 2.325194 54.243566 -3.690820 1.279520 -29.076870 -21.936575 -28.850609 10.105390 -42.484345 -24.969550 -4.914444 27.701985 -20.186588 -9.280725 -3.885591 2.001993 1.413640 -0.073430 0.140610 -0.168670 11.914399 25.800832 11.016453 68.166656 6.654812 -10.748354 4.405881 20.419713 -0.634049 1.787667 -0.268715 -0.948990 0.921430 0.803520 -0.478690 
1.606790 16.853450 -6.808020 -1.631237 18.169078 -1.523352 -15.510935 13.910230 3.674888 11.806763 -0.508072 10.972174 -9.471365 6.354110 0.355774 -0.809635 6.670780 2.307473 -0.342430 -0.671240 -0.147490 17.980508 -9.433644 3.111786 4.953924 2.253458 -24.084288 0.314829 -2.637583 2.915412 -0.020359 -1.148546 3.929771 -0.112950 0.370960 -0.003290 -2.964898 -4.658863 -8.668076 4.401988 -9.119262 17.794746 -8.961180 -6.754594 13.105206 4.816533 1.030280 -17.524267 -6.381881 2.931659 54.652017 -3.802540 1.620720 -28.593300 -21.311300 -29.213359 10.354131 -42.953508 -24.571099 -4.565613 27.628987 -18.548503 -8.856225 -3.892906 2.018194 1.407690 -0.068230 0.143630 -0.169700 11.312109 26.216804 11.134996 68.019136 6.846866 -10.853544 3.887364 20.661689 -0.701103 1.784040 -0.273577 -0.942070 0.918660 0.806210 -0.473350 
1.603160 16.861860 -6.691820 -2.004633 17.369283 -1.733616 -15.534515 14.000662 3.659044 12.069780 -0.549134 11.410518 -8.938582 6.467691 0.917348 -0.797347 6.710113 2.290814 -0.351410 -0.679840 -0.148790 17.955466 -9.399806 3.119855 5.663013 2.407983 -23.418858 0.161590 -2.702854 3.932896 -0.023715 -1.170222 3.923733 -0.122070 0.369500 0.002400 -2.877859 -4.840175 -8.657391 4.294091 -9.253203 17.529053 -8.424252 -7.049206 13.173049 4.889843 0.936510 -17.720644 -6.767983 3.460177 55.244401 -4.205950 2.097620 -28.167240 -21.124856 -29.277073 10.475215 -43.597677 -23.907689 -4.276525 27.492165 -17.270800 -8.483248 -3.900358 2.024138 1.407520 -0.063900 0.148380 -0.175190 11.043727 26.293328 11.206160 67.888627 6.693738 -10.966213 3.518548 20.642094 -0.714323 1.785897 -0.267595 -0.938340 0.912670 0.810530 -0.474100 
1.600810 16.866890 -6.574440 -2.468163 16.549646 -1.850522 -15.550990 14.077340 3.623373 12.361946 -0.623319 11.660578 -8.484313 6.603336 1.675565 -0.800388 6.751340 2.273936 -0.362610 -0.698510 -0.146170 17.939973 -9.358183 3.141327 6.374463 2.575044 -22.710139 0.226466 -2.776749 4.664727 -0.027182 -1.208623 3.913558 -0.132660 0.369570 0.006790 -2.813861 -5.003694 -8.642554 4.426594 -9.436503 17.088475 -8.119661 -7.354809 13.179864 5.046871 0.978936 -17.849884 -6.836196 3.932451 55.804694 -4.796640 2.701420 -27.521620 -20.760372 -29.292125 10.547514 -44.440311 -23.310938 -3.777237 27.211978 -15.645812 -7.975477 -3.913918 2.027919 1.412100 -0.055770 0.147360 -0.181740 10.386951 26.172533 11.173271 68.220315 6.661797 -10.915832 3.281139 20.076107 -0.672520 1.789981 -0.265373 -0.943430 0.905830 0.816760 -0.482710 
